<mxfile host="app.diagrams.net" agent="Mozilla/5.0 (Windows NT 10.0; Win64; x64) AppleWebKit/537.36 (KHTML, like Gecko) Chrome/129.0.0.0 Safari/537.36 Edg/129.0.0.0" version="24.7.17">
  <diagram name="第 1 页" id="8Cf6AzR6KB79O5gT-KY9">
    <mxGraphModel dx="1194" dy="666" grid="1" gridSize="10" guides="1" tooltips="1" connect="1" arrows="1" fold="1" page="1" pageScale="1" pageWidth="827" pageHeight="1169" math="0" shadow="0">
      <root>
        <mxCell id="0" />
        <mxCell id="1" parent="0" />
        <mxCell id="0LFVTU1WVOfub0G3tGXa-1" value="SAP数据库" style="rounded=0;whiteSpace=wrap;html=1;" vertex="1" parent="1">
          <mxGeometry x="80" y="360" width="120" height="60" as="geometry" />
        </mxCell>
        <mxCell id="0LFVTU1WVOfub0G3tGXa-2" value="SAP映射库" style="rounded=0;whiteSpace=wrap;html=1;" vertex="1" parent="1">
          <mxGeometry x="340" y="360" width="120" height="60" as="geometry" />
        </mxCell>
        <mxCell id="0LFVTU1WVOfub0G3tGXa-3" value="OGG服务&lt;br&gt;进行数据同步&lt;br&gt;（Oracel组件）" style="endArrow=classic;html=1;rounded=0;exitX=1;exitY=0.5;exitDx=0;exitDy=0;entryX=0;entryY=0.5;entryDx=0;entryDy=0;" edge="1" parent="1" source="0LFVTU1WVOfub0G3tGXa-1" target="0LFVTU1WVOfub0G3tGXa-2">
          <mxGeometry width="50" height="50" relative="1" as="geometry">
            <mxPoint x="240" y="410" as="sourcePoint" />
            <mxPoint x="290" y="360" as="targetPoint" />
          </mxGeometry>
        </mxCell>
        <mxCell id="0LFVTU1WVOfub0G3tGXa-4" value="CRM" style="rounded=0;whiteSpace=wrap;html=1;" vertex="1" parent="1">
          <mxGeometry x="275" y="180" width="70" height="60" as="geometry" />
        </mxCell>
        <mxCell id="0LFVTU1WVOfub0G3tGXa-6" value="Dportal" style="rounded=0;whiteSpace=wrap;html=1;" vertex="1" parent="1">
          <mxGeometry x="365" y="180" width="70" height="60" as="geometry" />
        </mxCell>
        <mxCell id="0LFVTU1WVOfub0G3tGXa-7" value="....." style="rounded=0;whiteSpace=wrap;html=1;" vertex="1" parent="1">
          <mxGeometry x="455" y="180" width="70" height="60" as="geometry" />
        </mxCell>
        <mxCell id="0LFVTU1WVOfub0G3tGXa-13" value="" style="shape=curlyBracket;whiteSpace=wrap;html=1;rounded=1;labelPosition=left;verticalLabelPosition=middle;align=right;verticalAlign=middle;rotation=-90;" vertex="1" parent="1">
          <mxGeometry x="385" y="160" width="20" height="200" as="geometry" />
        </mxCell>
        <mxCell id="0LFVTU1WVOfub0G3tGXa-14" value="" style="endArrow=classic;html=1;rounded=0;exitX=0.1;exitY=0.5;exitDx=0;exitDy=0;exitPerimeter=0;entryX=0.5;entryY=0;entryDx=0;entryDy=0;" edge="1" parent="1" source="0LFVTU1WVOfub0G3tGXa-13" target="0LFVTU1WVOfub0G3tGXa-2">
          <mxGeometry width="50" height="50" relative="1" as="geometry">
            <mxPoint x="400" y="320" as="sourcePoint" />
            <mxPoint x="450" y="270" as="targetPoint" />
          </mxGeometry>
        </mxCell>
        <mxCell id="0LFVTU1WVOfub0G3tGXa-15" value="直接访问库进行数据访问" style="edgeLabel;html=1;align=center;verticalAlign=middle;resizable=0;points=[];" vertex="1" connectable="0" parent="0LFVTU1WVOfub0G3tGXa-14">
          <mxGeometry x="-0.2462" y="-2" relative="1" as="geometry">
            <mxPoint as="offset" />
          </mxGeometry>
        </mxCell>
      </root>
    </mxGraphModel>
  </diagram>
</mxfile>
